<?xml version="1.0" encoding="UTF-8"?>
<svg xmlns="http://www.w3.org/2000/svg" version="1.1" width="300" height="300" viewBox="0 0 300 300"><rect x="0" y="0" width="300" height="300" fill="#ffffff"/><g transform="scale(10.345)"><g transform="translate(0,0)"><path fill-rule="evenodd" d="M10 0L10 2L11 2L11 0ZM12 0L12 1L13 1L13 2L12 2L12 4L14 4L14 5L11 5L11 6L10 6L10 4L11 4L11 3L8 3L8 4L9 4L9 5L8 5L8 7L9 7L9 8L6 8L6 9L7 9L7 10L5 10L5 11L4 11L4 9L5 9L5 8L0 8L0 11L2 11L2 12L1 12L1 13L0 13L0 14L1 14L1 15L2 15L2 16L5 16L5 13L8 13L8 14L9 14L9 13L11 13L11 12L9 12L9 11L8 11L8 10L9 10L9 9L10 9L10 11L11 11L11 9L12 9L12 10L13 10L13 11L12 11L12 13L13 13L13 12L14 12L14 13L15 13L15 12L14 12L14 11L16 11L16 12L17 12L17 13L16 13L16 14L15 14L15 15L14 15L14 16L16 16L16 15L17 15L17 14L18 14L18 15L19 15L19 14L20 14L20 13L21 13L21 14L22 14L22 16L23 16L23 15L24 15L24 16L25 16L25 13L26 13L26 15L27 15L27 16L26 16L26 17L22 17L22 18L21 18L21 19L22 19L22 20L19 20L19 19L18 19L18 18L20 18L20 17L21 17L21 16L20 16L20 17L18 17L18 16L17 16L17 17L16 17L16 18L15 18L15 17L12 17L12 15L13 15L13 14L11 14L11 16L10 16L10 15L7 15L7 14L6 14L6 15L7 15L7 16L6 16L6 17L1 17L1 16L0 16L0 21L1 21L1 18L4 18L4 19L2 19L2 21L4 21L4 20L6 20L6 21L8 21L8 23L11 23L11 24L10 24L10 25L9 25L9 24L8 24L8 29L9 29L9 28L11 28L11 26L10 26L10 25L12 25L12 26L13 26L13 27L12 27L12 29L13 29L13 28L14 28L14 29L18 29L18 28L17 28L17 27L16 27L16 26L18 26L18 27L19 27L19 28L21 28L21 29L22 29L22 28L21 28L21 25L25 25L25 26L22 26L22 27L23 27L23 29L24 29L24 27L25 27L25 28L26 28L26 29L27 29L27 28L28 28L28 26L29 26L29 25L27 25L27 24L29 24L29 23L27 23L27 22L29 22L29 20L28 20L28 19L27 19L27 16L28 16L28 15L27 15L27 12L28 12L28 11L27 11L27 12L25 12L25 13L21 13L21 12L22 12L22 11L23 11L23 12L24 12L24 11L25 11L25 9L26 9L26 8L25 8L25 9L24 9L24 8L23 8L23 9L22 9L22 8L20 8L20 9L19 9L19 8L17 8L17 6L16 6L16 5L18 5L18 7L19 7L19 5L20 5L20 3L21 3L21 0L17 0L17 1L14 1L14 0ZM8 1L8 2L9 2L9 1ZM17 1L17 2L15 2L15 3L14 3L14 2L13 2L13 3L14 3L14 4L15 4L15 5L16 5L16 4L15 4L15 3L18 3L18 5L19 5L19 2L20 2L20 1ZM9 6L9 7L10 7L10 6ZM11 6L11 7L12 7L12 9L14 9L14 10L16 10L16 9L17 9L17 8L16 8L16 6L15 6L15 7L14 7L14 6L13 6L13 7L12 7L12 6ZM20 6L20 7L21 7L21 6ZM10 8L10 9L11 9L11 8ZM27 8L27 9L28 9L28 10L29 10L29 9L28 9L28 8ZM1 9L1 10L3 10L3 9ZM20 9L20 10L17 10L17 12L18 12L18 13L20 13L20 12L21 12L21 9ZM23 10L23 11L24 11L24 10ZM3 11L3 12L2 12L2 15L3 15L3 14L4 14L4 13L3 13L3 12L4 12L4 11ZM6 11L6 12L8 12L8 13L9 13L9 12L8 12L8 11ZM28 13L28 14L29 14L29 13ZM7 16L7 17L6 17L6 18L7 18L7 17L8 17L8 18L9 18L9 19L6 19L6 20L9 20L9 22L10 22L10 20L11 20L11 22L13 22L13 23L12 23L12 25L15 25L15 26L16 26L16 25L17 25L17 24L18 24L18 25L19 25L19 27L20 27L20 23L19 23L19 20L18 20L18 19L17 19L17 18L16 18L16 19L17 19L17 20L18 20L18 21L17 21L17 22L18 22L18 23L16 23L16 25L15 25L15 24L14 24L14 23L15 23L15 22L16 22L16 21L14 21L14 20L15 20L15 19L14 19L14 20L13 20L13 21L12 21L12 19L13 19L13 18L12 18L12 17L10 17L10 16ZM28 17L28 18L29 18L29 17ZM10 18L10 19L11 19L11 18ZM22 18L22 19L23 19L23 20L24 20L24 19L25 19L25 21L26 21L26 20L27 20L27 19L25 19L25 18L24 18L24 19L23 19L23 18ZM21 21L21 24L24 24L24 21ZM22 22L22 23L23 23L23 22ZM18 23L18 24L19 24L19 23ZM26 23L26 24L25 24L25 25L26 25L26 24L27 24L27 23ZM25 26L25 27L26 27L26 28L27 28L27 26ZM14 27L14 28L15 28L15 27ZM0 0L0 7L7 7L7 0ZM1 1L1 6L6 6L6 1ZM2 2L2 5L5 5L5 2ZM22 0L22 7L29 7L29 0ZM23 1L23 6L28 6L28 1ZM24 2L24 5L27 5L27 2ZM0 22L0 29L7 29L7 22ZM1 23L1 28L6 28L6 23ZM2 24L2 27L5 27L5 24Z" fill="#000000"/></g></g></svg>
