<?xml version="1.0" encoding="UTF-8"?>
<svg xmlns="http://www.w3.org/2000/svg" version="1.1" width="300" height="300" viewBox="0 0 300 300"><rect x="0" y="0" width="300" height="300" fill="#ffffff"/><g transform="scale(10.345)"><g transform="translate(0,0)"><path fill-rule="evenodd" d="M8 0L8 4L10 4L10 3L11 3L11 4L12 4L12 2L11 2L11 0ZM12 0L12 1L13 1L13 0ZM14 0L14 1L16 1L16 3L15 3L15 2L14 2L14 3L13 3L13 5L11 5L11 6L10 6L10 7L9 7L9 5L8 5L8 7L9 7L9 8L10 8L10 7L11 7L11 6L12 6L12 8L11 8L11 9L8 9L8 10L6 10L6 9L7 9L7 8L4 8L4 9L3 9L3 10L1 10L1 9L2 9L2 8L0 8L0 11L1 11L1 12L0 12L0 14L1 14L1 15L0 15L0 16L1 16L1 17L0 17L0 18L1 18L1 17L7 17L7 16L8 16L8 15L9 15L9 17L8 17L8 18L6 18L6 19L5 19L5 20L3 20L3 19L4 19L4 18L3 18L3 19L2 19L2 20L0 20L0 21L2 21L2 20L3 20L3 21L8 21L8 22L10 22L10 19L9 19L9 20L6 20L6 19L8 19L8 18L9 18L9 17L10 17L10 13L11 13L11 12L12 12L12 13L13 13L13 14L15 14L15 15L14 15L14 16L13 16L13 15L12 15L12 16L11 16L11 17L12 17L12 18L11 18L11 20L12 20L12 21L13 21L13 22L15 22L15 23L14 23L14 24L13 24L13 23L12 23L12 24L11 24L11 25L10 25L10 26L9 26L9 27L8 27L8 29L11 29L11 28L12 28L12 29L14 29L14 27L15 27L15 28L16 28L16 29L18 29L18 28L19 28L19 29L21 29L21 26L22 26L22 25L26 25L26 23L27 23L27 25L28 25L28 26L27 26L27 29L28 29L28 28L29 28L29 25L28 25L28 23L29 23L29 17L28 17L28 16L29 16L29 13L28 13L28 12L29 12L29 8L25 8L25 9L24 9L24 8L23 8L23 9L22 9L22 10L21 10L21 9L20 9L20 8L19 8L19 6L20 6L20 7L21 7L21 4L20 4L20 3L21 3L21 2L20 2L20 1L19 1L19 0L17 0L17 1L16 1L16 0ZM17 1L17 2L19 2L19 1ZM9 2L9 3L10 3L10 2ZM14 3L14 6L13 6L13 8L12 8L12 9L11 9L11 10L8 10L8 11L6 11L6 10L5 10L5 11L2 11L2 12L1 12L1 14L2 14L2 15L5 15L5 16L7 16L7 15L8 15L8 11L9 11L9 13L10 13L10 11L11 11L11 10L12 10L12 9L13 9L13 10L14 10L14 9L13 9L13 8L16 8L16 9L17 9L17 7L18 7L18 5L20 5L20 4L18 4L18 3L16 3L16 4L18 4L18 5L15 5L15 3ZM14 6L14 7L15 7L15 6ZM16 6L16 7L17 7L17 6ZM19 9L19 12L18 12L18 13L19 13L19 14L18 14L18 15L19 15L19 16L18 16L18 17L19 17L19 19L18 19L18 18L17 18L17 19L16 19L16 20L15 20L15 19L14 19L14 21L16 21L16 20L17 20L17 19L18 19L18 21L17 21L17 22L16 22L16 23L18 23L18 25L19 25L19 24L20 24L20 23L18 23L18 22L20 22L20 20L23 20L23 19L24 19L24 20L26 20L26 21L25 21L25 22L27 22L27 23L28 23L28 20L27 20L27 19L28 19L28 18L27 18L27 15L28 15L28 14L27 14L27 11L28 11L28 10L24 10L24 11L23 11L23 10L22 10L22 11L23 11L23 12L22 12L22 13L21 13L21 10L20 10L20 9ZM16 10L16 11L14 11L14 13L15 13L15 12L16 12L16 13L17 13L17 10ZM5 11L5 12L2 12L2 13L3 13L3 14L4 14L4 13L5 13L5 15L7 15L7 14L6 14L6 13L7 13L7 12L6 12L6 11ZM12 11L12 12L13 12L13 11ZM24 11L24 12L25 12L25 11ZM5 12L5 13L6 13L6 12ZM19 12L19 13L20 13L20 14L21 14L21 13L20 13L20 12ZM22 13L22 14L26 14L26 15L27 15L27 14L26 14L26 13ZM16 14L16 15L17 15L17 14ZM23 15L23 16L24 16L24 15ZM12 16L12 17L13 17L13 18L15 18L15 17L13 17L13 16ZM16 16L16 17L17 17L17 16ZM19 16L19 17L20 17L20 18L21 18L21 19L23 19L23 18L24 18L24 19L27 19L27 18L25 18L25 17L26 17L26 16L25 16L25 17L22 17L22 16L21 16L21 17L20 17L20 16ZM12 19L12 20L13 20L13 19ZM21 21L21 24L24 24L24 21ZM22 22L22 23L23 23L23 22ZM8 23L8 25L9 25L9 24L10 24L10 23ZM12 24L12 25L11 25L11 26L12 26L12 25L13 25L13 26L15 26L15 25L17 25L17 24L15 24L15 25L13 25L13 24ZM20 25L20 26L18 26L18 27L20 27L20 26L21 26L21 25ZM10 27L10 28L11 28L11 27ZM12 27L12 28L13 28L13 27ZM16 27L16 28L17 28L17 27ZM22 27L22 28L23 28L23 29L24 29L24 28L25 28L25 29L26 29L26 27L24 27L24 28L23 28L23 27ZM0 0L0 7L7 7L7 0ZM1 1L1 6L6 6L6 1ZM2 2L2 5L5 5L5 2ZM22 0L22 7L29 7L29 0ZM23 1L23 6L28 6L28 1ZM24 2L24 5L27 5L27 2ZM0 22L0 29L7 29L7 22ZM1 23L1 28L6 28L6 23ZM2 24L2 27L5 27L5 24Z" fill="#000000"/></g></g></svg>
