<?xml version="1.0" encoding="UTF-8"?>
<svg xmlns="http://www.w3.org/2000/svg" version="1.1" width="300" height="300" viewBox="0 0 300 300"><rect x="0" y="0" width="300" height="300" fill="#ffffff"/><g transform="scale(10.345)"><g transform="translate(0,0)"><path fill-rule="evenodd" d="M9 0L9 1L8 1L8 3L9 3L9 4L8 4L8 8L6 8L6 9L4 9L4 8L3 8L3 9L4 9L4 10L2 10L2 11L4 11L4 12L3 12L3 13L2 13L2 14L1 14L1 15L2 15L2 16L0 16L0 17L1 17L1 18L0 18L0 19L1 19L1 18L2 18L2 16L3 16L3 20L2 20L2 21L5 21L5 20L4 20L4 16L6 16L6 17L7 17L7 18L6 18L6 19L8 19L8 23L9 23L9 22L10 22L10 24L9 24L9 25L8 25L8 26L9 26L9 27L8 27L8 29L11 29L11 28L12 28L12 29L14 29L14 28L12 28L12 24L14 24L14 25L13 25L13 27L15 27L15 28L16 28L16 29L18 29L18 28L19 28L19 29L21 29L21 27L22 27L22 26L24 26L24 28L23 28L23 29L24 29L24 28L25 28L25 29L26 29L26 28L25 28L25 26L28 26L28 27L27 27L27 29L28 29L28 27L29 27L29 26L28 26L28 25L29 25L29 23L28 23L28 22L29 22L29 21L27 21L27 20L29 20L29 17L28 17L28 15L29 15L29 14L27 14L27 13L29 13L29 12L28 12L28 10L29 10L29 9L28 9L28 8L26 8L26 9L25 9L25 8L22 8L22 9L21 9L21 8L20 8L20 9L21 9L21 10L19 10L19 11L18 11L18 12L17 12L17 8L18 8L18 9L19 9L19 6L20 6L20 7L21 7L21 4L20 4L20 5L19 5L19 6L18 6L18 7L17 7L17 6L16 6L16 5L18 5L18 4L19 4L19 3L21 3L21 1L20 1L20 0L12 0L12 1L11 1L11 2L9 2L9 1L10 1L10 0ZM16 1L16 2L17 2L17 1ZM19 1L19 2L18 2L18 3L17 3L17 4L18 4L18 3L19 3L19 2L20 2L20 1ZM13 2L13 3L12 3L12 4L9 4L9 5L10 5L10 6L9 6L9 7L10 7L10 8L8 8L8 9L6 9L6 10L4 10L4 11L6 11L6 12L4 12L4 13L6 13L6 14L2 14L2 15L6 15L6 16L7 16L7 15L6 15L6 14L7 14L7 13L9 13L9 14L8 14L8 16L9 16L9 17L8 17L8 19L9 19L9 20L10 20L10 21L11 21L11 20L10 20L10 19L9 19L9 17L10 17L10 18L11 18L11 19L12 19L12 20L13 20L13 21L14 21L14 22L15 22L15 23L14 23L14 24L15 24L15 27L16 27L16 26L19 26L19 28L20 28L20 24L19 24L19 23L20 23L20 21L19 21L19 20L23 20L23 19L22 19L22 17L24 17L24 20L25 20L25 25L27 25L27 24L26 24L26 23L27 23L27 22L26 22L26 20L27 20L27 18L28 18L28 17L27 17L27 15L26 15L26 13L27 13L27 12L26 12L26 13L25 13L25 12L23 12L23 11L24 11L24 10L25 10L25 9L23 9L23 11L22 11L22 10L21 10L21 11L22 11L22 12L23 12L23 13L22 13L22 15L21 15L21 12L18 12L18 13L15 13L15 12L16 12L16 9L15 9L15 8L17 8L17 7L16 7L16 6L15 6L15 3L14 3L14 2ZM13 4L13 5L14 5L14 4ZM11 5L11 6L10 6L10 7L11 7L11 6L12 6L12 8L13 8L13 6L12 6L12 5ZM14 6L14 8L15 8L15 6ZM0 8L0 9L2 9L2 8ZM10 8L10 10L6 10L6 11L7 11L7 12L6 12L6 13L7 13L7 12L8 12L8 11L11 11L11 10L12 10L12 9L11 9L11 8ZM26 9L26 10L28 10L28 9ZM0 10L0 11L1 11L1 10ZM14 11L14 12L15 12L15 11ZM12 12L12 13L10 13L10 17L12 17L12 16L13 16L13 17L16 17L16 19L15 19L15 20L14 20L14 18L13 18L13 20L14 20L14 21L15 21L15 20L16 20L16 19L17 19L17 20L18 20L18 16L19 16L19 17L20 17L20 19L21 19L21 17L22 17L22 16L24 16L24 15L25 15L25 17L26 17L26 15L25 15L25 14L24 14L24 15L22 15L22 16L21 16L21 17L20 17L20 15L19 15L19 14L20 14L20 13L19 13L19 14L17 14L17 17L16 17L16 15L13 15L13 12ZM11 14L11 16L12 16L12 14ZM25 18L25 19L26 19L26 18ZM0 20L0 21L1 21L1 20ZM6 20L6 21L7 21L7 20ZM16 21L16 23L15 23L15 24L16 24L16 25L18 25L18 24L16 24L16 23L18 23L18 22L19 22L19 21ZM21 21L21 24L24 24L24 21ZM22 22L22 23L23 23L23 22ZM10 24L10 25L9 25L9 26L10 26L10 27L9 27L9 28L10 28L10 27L11 27L11 24ZM21 25L21 26L22 26L22 25ZM0 0L0 7L7 7L7 0ZM1 1L1 6L6 6L6 1ZM2 2L2 5L5 5L5 2ZM22 0L22 7L29 7L29 0ZM23 1L23 6L28 6L28 1ZM24 2L24 5L27 5L27 2ZM0 22L0 29L7 29L7 22ZM1 23L1 28L6 28L6 23ZM2 24L2 27L5 27L5 24Z" fill="#000000"/></g></g></svg>
